<svg width="49" height="48" viewBox="0 0 49 48" fill="none" xmlns="http://www.w3.org/2000/svg">
<path fill-rule="evenodd" clip-rule="evenodd" d="M48.54 24C48.54 37.2548 37.7949 48 24.54 48C11.2852 48 0.540039 37.2548 0.540039 24C0.540039 10.7452 11.2852 0 24.54 0C37.7949 0 48.54 10.7452 48.54 24ZM46.5809 24C46.5809 36.1728 36.7128 46.0408 24.54 46.0408C12.3672 46.0408 2.49922 36.1728 2.49922 24C2.49922 11.8272 12.3672 1.95918 24.54 1.95918C36.7128 1.95918 46.5809 11.8272 46.5809 24Z" fill="#06071A"/>
<path d="M33.1799 21.1735C30.754 23.256 26.8096 23.4838 24.7138 20.1532C23.5809 18.1537 24.3723 15.3206 26.7348 13.3563C29.0973 11.3921 32.8891 12.4411 34.2009 14.7562C35.5127 17.0713 35.1979 19.4411 33.1799 21.1735Z" fill="#06071A"/>
<path d="M21.1796 24.7998C21.2083 24.798 21.235 24.7982 21.2595 24.8005C22.2287 25.5203 23.3363 25.7609 24.4801 26.0093C25.9525 26.3292 27.4849 26.6621 28.8589 28.0472C31.5118 30.7216 29.4415 35.4076 26.1919 37.3173C22.9422 39.227 18.7598 38.1408 16.85 34.8912C15.3091 32.269 16.4651 29.3548 17.2364 27.4104C17.421 26.9452 17.5835 26.5354 17.6818 26.1985C17.6825 26.1986 17.6831 26.1986 17.6838 26.1986C17.703 26.0879 17.7965 25.4939 17.6761 25.027C17.4729 24.2391 16.6289 23.7696 15.7306 23.2699C14.7669 22.7338 13.7407 22.163 13.3765 21.127C12.6125 18.9544 14.0456 16.2913 16.2358 16.0146C19.2556 15.6333 20.92 18.1983 20.3677 20.0663C19.9487 21.4836 19.572 23.3438 21.1796 24.7998Z" fill="#06071A"/>
</svg>
