<svg width="48" height="48" viewBox="0 0 48 48" fill="none" xmlns="http://www.w3.org/2000/svg" class="styles_logo__Qce_l"><path d="M37.4599 23.9975H33.9808C32.9417 23.9975 32.0998 24.8654 32.0998 25.9364V31.1416C32.0998 32.2126 31.2578 33.0805 30.2188 33.0805H16.3779C15.3388 33.0805 14.4968 33.9484 14.4968 35.0195V38.6057C14.4968 39.6767 15.3388 40.5446 16.3779 40.5446H31.0199C32.059 40.5446 32.8889 39.6767 32.8889 38.6057V35.7284C32.8889 34.6574 33.7309 33.8976 34.77 33.8976H37.4592C38.4982 33.8976 39.3402 33.0297 39.3402 31.9586V25.9139C39.3402 24.8429 38.4982 23.9975 37.4592 23.9975H37.4599Z" fill="white"></path><path d="M14.4962 16.873C14.4962 15.8019 15.3382 14.934 16.3773 14.934H30.2097C31.2488 14.934 32.0907 14.0661 32.0907 12.9951V9.40886C32.0907 8.33779 31.2488 7.46991 30.2097 7.46991H15.5754C14.5364 7.46991 13.6944 8.33779 13.6944 9.40886V12.1722C13.6944 13.2432 12.8525 14.1111 11.8134 14.1111H9.13615C8.09708 14.1111 7.25513 14.979 7.25513 16.0501V22.1013C7.25513 23.1724 8.1006 23.9967 9.13968 23.9967H12.6187C13.6578 23.9967 14.4998 23.1289 14.4998 22.0578L14.4962 16.8737V16.873Z" fill="white"></path><path d="M21.6605 20.2277H25.0023C26.0914 20.2277 26.9749 21.1391 26.9749 22.261V25.7057C26.9749 26.8282 26.0907 27.7389 25.0023 27.7389H21.6605C20.5715 27.7389 19.688 26.8275 19.688 25.7057V22.261C19.688 21.1384 20.5722 20.2277 21.6605 20.2277Z" fill="white"></path></svg>